<svg width="120" height="22" viewBox="0 0 120 22" fill="none" xmlns="http://www.w3.org/2000/svg">
<g id="logo">
<path d="M0 11.543C0 5.62208 5.14624 0.822195 11.4944 0.822195H11.8137C17.9856 0.822195 22.9889 5.48875 22.9889 11.2452C22.9889 17.0017 17.9856 21.6683 11.8137 21.6683H0V11.543Z" fill="#0075DC"/>
<path d="M15.8561 6.46319C13.8096 4.53774 12.0189 5.66092 11.3793 6.46319L10.1003 7.66656C9.24753 7.16515 7.15836 6.40299 5.62347 7.36571C4.08857 8.32844 5.19711 10.5748 5.94324 11.5776L8.18163 14.2853C8.18163 13.3827 8.56535 11.5776 10.1003 11.5776C11.6351 11.5776 11.8057 13.3827 11.6991 14.2853L12.0189 19.0989L15.8561 11.5776C16.7088 10.6751 17.9026 8.38863 15.8561 6.46319Z" fill="white"/>
<path d="M30.1009 12.6472L30.1907 8.12436C30.1907 7.21234 30.1707 6.39804 30.1308 5.68146C30.1009 4.95557 30.0111 4.46699 29.8614 4.21572C29.7217 3.95514 29.582 3.78763 29.4424 3.71318C29.3027 3.62942 29.163 3.56428 29.0233 3.51775C28.8836 3.47121 28.8038 3.44795 28.7838 3.44795C28.6242 3.41072 28.5443 3.16411 28.5443 2.7081C28.5443 2.24278 28.5643 1.95429 28.6042 1.84261C32.0765 1.12603 34.7007 0.767738 36.4767 0.767738C40.7173 0.767738 44.01 1.72163 46.3547 3.62942C48.3304 5.2301 49.3182 7.48222 49.3182 10.3858C49.3182 12.7124 48.7245 14.7458 47.5371 16.4861C46.3498 18.217 44.7134 19.5339 42.628 20.4366C40.5526 21.33 38.1679 21.7767 35.4739 21.7767C33.9972 21.7767 32.6153 21.6604 31.3282 21.4277C30.6696 21.1764 30.2955 20.5343 30.2057 19.5013C30.1358 18.701 30.1009 17.4958 30.1009 15.8858V12.6472ZM34.6957 7.30075L34.546 15.7881V16.7373C34.546 18.5148 34.7206 19.5339 35.0698 19.7944C35.429 19.8503 35.8132 19.8782 36.2223 19.8782C36.6314 19.8782 37.1801 19.8642 37.8686 19.8363C38.5571 19.7991 39.2905 19.599 40.0687 19.2361C40.857 18.8731 41.5804 18.352 42.2389 17.6726C42.8974 16.9932 43.4213 16.0905 43.8104 14.9645C44.1995 13.8291 44.3941 12.6146 44.3941 11.3211C44.3941 10.0182 44.2345 8.89213 43.9152 7.94288C43.6059 6.99364 43.1968 6.20726 42.6879 5.58374C42.189 4.96022 41.6103 4.43441 40.9518 4.00633C39.6946 3.19668 38.4024 2.79186 37.0754 2.79186C35.7483 2.79186 34.8354 2.857 34.3365 2.98729C34.5759 3.96445 34.6957 5.12308 34.6957 6.46319V7.30075Z" fill="#0075DC"/>
<path d="M55.6958 15.3972C55.9951 16.7745 56.6337 17.8867 57.6115 18.7335C58.5893 19.5804 59.7318 20.0038 61.0389 20.0038C62.346 20.0038 63.6631 19.478 64.9901 18.4264C65.489 18.7335 65.7933 19.0965 65.9031 19.5153C64.9851 20.511 63.6281 21.223 61.8321 21.651C61.1037 21.8279 60.2606 21.9163 59.3028 21.9163C58.3549 21.9163 57.372 21.7534 56.3543 21.4277C55.3366 21.1113 54.4236 20.646 53.6154 20.0317C52.8172 19.4175 52.1836 18.6125 51.7146 17.6168C51.2457 16.6117 51.0112 15.4996 51.0112 14.2805C51.0112 13.0613 51.2507 11.9585 51.7296 10.9721C52.2085 9.97631 52.8421 9.16201 53.6304 8.52918C55.2767 7.19838 57.1625 6.53298 59.2878 6.53298C61.1536 6.53298 62.77 7.00295 64.137 7.94288C64.7955 8.4082 65.3194 9.01311 65.7085 9.75761C66.1076 10.4928 66.3072 11.3257 66.3072 12.2563C66.3072 13.8477 65.7434 14.6853 64.6159 14.769L55.6958 15.3972ZM62.2811 11.8376C62.2811 10.7301 61.9519 9.86463 61.2933 9.24111C60.6348 8.61759 59.7717 8.30583 58.7041 8.30583C57.6365 8.30583 56.8283 8.7758 56.2795 9.71573C55.7307 10.6464 55.4563 11.9399 55.4563 13.5965C57.9408 13.3452 60.1858 13.08 62.1913 12.8008C62.2512 12.4657 62.2811 12.1447 62.2811 11.8376Z" fill="#0075DC"/>
<path d="M79.3749 18.3985L79.5246 13.08C79.5246 11.8701 79.4797 11.107 79.3899 10.7906C79.3101 10.4742 79.2053 10.2369 79.0756 10.0787C78.7962 9.75296 78.3871 9.5901 77.8483 9.5901C77.3095 9.5901 76.8505 9.64594 76.4714 9.75761C75.6931 9.99957 74.6953 10.6789 73.478 11.7957C73.478 13.0055 73.4481 16.2255 73.3882 21.4556C72.2807 21.6324 71.3577 21.7208 70.6194 21.7208C69.881 21.7208 69.2574 21.6324 68.7486 21.4556C68.9282 19.1942 69.018 17.1096 69.018 15.2018C69.018 13.2847 68.993 11.6328 68.9431 10.2462C68.9431 9.53891 68.6737 9.12013 68.1349 8.98984C67.7957 8.88747 67.3167 8.81302 66.6981 8.76649C66.6382 8.52453 66.6083 8.33375 66.6083 8.19415C66.6083 8.04525 66.6283 7.91031 66.6682 7.78933C68.105 7.03552 69.891 6.65862 72.0263 6.65862C72.3755 6.65862 72.6349 6.66327 72.8045 6.67258C73.1937 7.2961 73.4082 8.36632 73.4481 9.88325C75.314 7.64974 77.4991 6.53298 80.0035 6.53298C81.161 6.53298 82.0639 6.90058 82.7125 7.63578C83.371 8.36167 83.7452 9.34813 83.835 10.5952C83.8749 11.1629 83.8949 11.7305 83.8949 12.2982C83.8949 12.8659 83.8649 13.4801 83.8051 14.1409C83.6355 16.151 83.5506 17.6912 83.5506 18.7614C83.5506 19.0034 83.7352 19.1895 84.1044 19.3198C84.4736 19.4501 84.8328 19.5153 85.182 19.5153C85.5412 19.5153 85.7857 19.4966 85.9154 19.4594C86.0351 19.7107 86.095 19.9433 86.095 20.1574C86.095 20.3621 86.085 20.5017 86.065 20.5762C84.1992 21.4789 82.8073 21.9302 81.8893 21.9302C80.9714 21.9302 80.3228 21.6417 79.9437 21.0647C79.5645 20.4785 79.3749 19.5897 79.3749 18.3985Z" fill="#0075DC"/>
<path d="M95.4211 18.6218C95.7803 18.929 95.9848 19.2454 96.0347 19.5711C94.7176 21.1345 93.196 21.9163 91.4698 21.9163C90.3423 21.9163 89.5441 21.4975 89.0752 20.6599C88.676 19.9247 88.4316 18.6637 88.3418 16.8769C88.262 14.085 88.2221 11.4839 88.2221 9.0736C87.2043 9.03637 86.5807 8.98984 86.3512 8.934C86.3013 8.85955 86.2764 8.58502 86.2764 8.1104C86.2764 7.63578 86.3013 7.3752 86.3512 7.32867L88.252 7.16116C88.252 6.96572 88.2819 6.03044 88.3418 4.35531C88.8407 3.88069 89.5691 3.51775 90.5269 3.26648C91.4948 3.0059 92.3529 2.87561 93.1012 2.87561C92.9615 4.05751 92.8468 5.48603 92.757 7.16116C93.0862 7.17046 94.079 7.2263 95.7354 7.32867C95.7852 7.48688 95.8102 7.78933 95.8102 8.23603C95.8102 8.68273 95.7852 8.95262 95.7354 9.04568C94.8174 9.15736 93.7947 9.22715 92.6672 9.25507C92.6273 10.3625 92.6073 11.7631 92.6073 13.4569C92.6073 15.1413 92.6472 16.7327 92.727 18.231C92.757 18.808 93.0663 19.0965 93.655 19.0965C94.2536 19.0965 94.8423 18.9383 95.4211 18.6218Z" fill="#0075DC"/>
<path d="M111.138 13.5406L111.048 18.231C111.048 18.2775 111.048 18.324 111.048 18.3706C111.048 18.8824 111.308 19.1383 111.826 19.1383C112.225 19.1383 112.65 19.0174 113.099 18.7754C113.238 18.8871 113.368 19.0453 113.488 19.25C113.617 19.4455 113.692 19.599 113.712 19.7107C112.475 21.1811 111.188 21.9163 109.851 21.9163C108.524 21.9163 107.596 21.3067 107.067 20.0876C106.149 20.6832 105.211 21.1345 104.253 21.4417C103.305 21.7581 102.487 21.9163 101.799 21.9163C101.12 21.9163 100.487 21.8465 99.8979 21.7069C99.3192 21.5673 98.7804 21.3439 98.2815 21.0368C97.2039 20.3854 96.6651 19.3105 96.6651 17.8122C96.6651 17.0119 96.8996 16.3139 97.3685 15.7183C97.8475 15.1134 98.496 14.6388 99.3142 14.2944C100.881 13.6337 102.752 13.2754 104.927 13.2195L106.663 13.1637C106.733 12.4099 106.768 11.8143 106.768 11.3769C106.768 10.3904 106.563 9.64594 106.154 9.1434C105.755 8.64086 105.007 8.38959 103.909 8.38959C103.25 8.38959 102.737 8.60363 102.367 9.03172C102.008 9.45981 101.829 10.0926 101.829 10.9302C101.829 11.0419 101.659 11.1768 101.32 11.335C100.751 11.5863 100.182 11.7119 99.6135 11.7119C99.0548 11.7119 98.6058 11.563 98.2665 11.2652C97.9373 10.9674 97.7726 10.5486 97.7726 10.0089C97.7726 9.46912 97.9822 8.96192 98.4012 8.4873C98.8203 8.01268 99.3791 7.64508 100.077 7.38451C101.464 6.87266 103.046 6.61674 104.822 6.61674C106.678 6.61674 108.035 6.89127 108.893 7.44035C109.671 7.92427 110.225 8.61759 110.554 9.5203C110.943 10.5719 111.138 11.912 111.138 13.5406ZM106.663 18.6218C106.533 17.9425 106.468 17.3562 106.468 16.863C106.468 16.3604 106.483 15.6624 106.513 14.769L104.433 14.8528C103.365 14.8528 102.542 15.0948 101.963 15.5787C101.385 16.0626 101.095 16.6675 101.095 17.3934C101.095 18.1193 101.265 18.6405 101.604 18.9569C101.943 19.2733 102.627 19.4315 103.655 19.4315C104.692 19.4315 105.695 19.1616 106.663 18.6218Z" fill="#0075DC"/>
<path d="M115.45 3.61546C115.281 2.71275 114.647 2.20091 113.549 2.07992C113.479 1.62392 113.445 1.36799 113.445 1.31216C113.445 1.24701 113.45 1.17722 113.46 1.10276C115.345 0.4141 117.256 0.069767 119.192 0.069767C119.282 0.069767 119.376 0.069767 119.476 0.069767C119.686 0.321037 119.825 0.907333 119.895 1.82866C119.965 2.74067 120 4.87181 120 8.22207C120 11.563 119.945 15.9649 119.835 21.4277C119.177 21.6045 118.389 21.6929 117.471 21.6929C116.553 21.6929 115.839 21.5952 115.33 21.3998C115.51 20.1527 115.6 17.775 115.6 14.2665C115.6 10.758 115.55 7.20769 115.45 3.61546Z" fill="#0075DC"/>
</g>
</svg>
