<svg width="198" height="36" viewBox="0 0 198 36" fill="none" xmlns="http://www.w3.org/2000/svg">
<g id="logo">
<path d="M0 18.8943C0 9.1436 8.47487 1.2391 18.9291 1.2391H19.455C29.6188 1.2391 37.8583 8.92402 37.8583 18.4039C37.8583 27.8837 29.6188 35.5686 19.455 35.5686H0V18.8943Z" fill="white"/>
<path d="M26.112 10.5287C22.7417 7.35789 19.7928 9.20755 18.7396 10.5287L16.6332 12.5105C15.2289 11.6847 11.7885 10.4296 9.26077 12.015C6.73309 13.6004 8.55864 17.2998 9.78737 18.9512L13.4736 23.4102C13.4736 21.9239 14.1055 18.9512 16.6332 18.9512C19.1609 18.9512 19.4417 21.9239 19.2662 23.4102L19.7928 31.3373L26.112 18.9512C27.5163 17.4649 29.4822 13.6996 26.112 10.5287Z" fill="#0075DC"/>
<path d="M49.5704 20.7126L49.7183 13.2644C49.7183 11.7625 49.6854 10.4215 49.6197 9.24138C49.5704 8.04598 49.4225 7.24138 49.176 6.82759C48.946 6.39847 48.716 6.12261 48.4859 6C48.2559 5.86207 48.0258 5.75479 47.7958 5.67816C47.5657 5.60153 47.4343 5.56322 47.4014 5.56322C47.1385 5.50192 47.0071 5.09579 47.0071 4.34483C47.0071 3.57854 47.0399 3.10345 47.1057 2.91954C52.8238 1.73946 57.1453 1.14943 60.0702 1.14943C67.0536 1.14943 72.476 2.72031 76.3374 5.86207C79.5908 8.49808 81.2176 12.2069 81.2176 16.9885C81.2176 20.8199 80.2399 24.1686 78.2845 27.0345C76.3292 29.8851 73.6344 32.0536 70.2002 33.5402C66.7824 35.0115 62.8553 35.7471 58.4188 35.7471C55.9869 35.7471 53.7111 35.5556 51.5915 35.1724C50.507 34.7586 49.8908 33.7011 49.7429 32C49.6279 30.682 49.5704 28.6973 49.5704 26.046V20.7126ZM57.1371 11.908L56.8907 25.8851V27.4483C56.8907 30.3755 57.1782 32.0536 57.7533 32.4828C58.3448 32.5747 58.9775 32.6207 59.6512 32.6207C60.3248 32.6207 61.2286 32.5977 62.3624 32.5517C63.4961 32.4904 64.7038 32.1609 65.9855 31.5632C67.2836 30.9655 68.4749 30.1073 69.5594 28.9885C70.6439 27.8697 71.5065 26.3831 72.1473 24.5287C72.7882 22.659 73.1086 20.659 73.1086 18.5287C73.1086 16.3831 72.8457 14.5287 72.3199 12.9655C71.8105 11.4023 71.1368 10.1073 70.2988 9.08046C69.4772 8.05364 68.5242 7.18774 67.4397 6.48276C65.3693 5.14943 63.2414 4.48276 61.056 4.48276C58.8706 4.48276 57.3672 4.59004 56.5456 4.8046C56.9399 6.41379 57.1371 8.32184 57.1371 10.5287V11.908Z" fill="white"/>
<path d="M91.7203 25.2414C92.2132 27.5096 93.2648 29.341 94.8751 30.7356C96.4854 32.1303 98.3668 32.8276 100.519 32.8276C102.672 32.8276 104.841 31.9617 107.026 30.2299C107.848 30.7356 108.349 31.3333 108.53 32.023C107.018 33.6628 104.783 34.8352 101.826 35.5402C100.626 35.8314 99.2377 35.977 97.6603 35.977C96.0993 35.977 94.4808 35.7088 92.8048 35.1724C91.1287 34.6513 89.6253 33.8851 88.2943 32.8736C86.9798 31.8621 85.9364 30.5364 85.1641 28.8965C84.3918 27.2414 84.0057 25.41 84.0057 23.4023C84.0057 21.3946 84.4 19.5785 85.1887 17.954C85.9774 16.3142 87.0209 14.9732 88.3189 13.931C91.0301 11.7395 94.1357 10.6437 97.6356 10.6437C100.708 10.6437 103.37 11.4176 105.621 12.9655C106.706 13.7318 107.569 14.728 108.209 15.954C108.867 17.1648 109.195 18.5364 109.195 20.069C109.195 22.6897 108.267 24.069 106.41 24.2069L91.7203 25.2414ZM102.565 19.3793C102.565 17.5556 102.023 16.1303 100.938 15.1034C99.8539 14.0766 98.4326 13.5632 96.6744 13.5632C94.9162 13.5632 93.5853 14.3372 92.6815 15.8851C91.7778 17.4176 91.3259 19.5479 91.3259 22.2759C95.4174 21.8621 99.1145 21.4253 102.417 20.9655C102.516 20.4138 102.565 19.8851 102.565 19.3793Z" fill="white"/>
<path d="M130.715 30.1839L130.962 21.4253C130.962 19.4329 130.888 18.1762 130.74 17.6552C130.608 17.1341 130.436 16.7433 130.222 16.4828C129.762 15.9464 129.089 15.6782 128.201 15.6782C127.314 15.6782 126.558 15.7701 125.934 15.954C124.652 16.3525 123.009 17.4713 121.004 19.3103C121.004 21.3027 120.955 26.6054 120.856 35.2184C119.032 35.5096 117.513 35.6552 116.297 35.6552C115.081 35.6552 114.054 35.5096 113.216 35.2184C113.511 31.4943 113.659 28.0613 113.659 24.9195C113.659 21.7625 113.618 19.0421 113.536 16.7586C113.536 15.5939 113.092 14.9042 112.205 14.6897C111.646 14.5211 110.858 14.3985 109.839 14.3218C109.74 13.9234 109.691 13.6092 109.691 13.3793C109.691 13.1341 109.724 12.9119 109.79 12.7126C112.156 11.4713 115.097 10.8506 118.613 10.8506C119.189 10.8506 119.616 10.8582 119.895 10.8736C120.536 11.9004 120.889 13.6628 120.955 16.1609C124.028 12.4828 127.626 10.6437 131.75 10.6437C133.657 10.6437 135.144 11.249 136.212 12.4598C137.296 13.6552 137.912 15.2797 138.06 17.3333C138.126 18.2682 138.159 19.2031 138.159 20.1379C138.159 21.0728 138.109 22.0843 138.011 23.1724C137.732 26.4828 137.592 29.0192 137.592 30.7816C137.592 31.1801 137.896 31.4866 138.504 31.7011C139.112 31.9157 139.703 32.023 140.278 32.023C140.87 32.023 141.273 31.9923 141.486 31.931C141.683 32.3448 141.782 32.728 141.782 33.0805C141.782 33.4176 141.766 33.6475 141.733 33.7701C138.66 35.2567 136.368 36 134.856 36C133.344 36 132.276 35.5249 131.652 34.5747C131.028 33.6092 130.715 32.1456 130.715 30.1839Z" fill="white"/>
<path d="M157.14 30.5517C157.732 31.0575 158.069 31.5785 158.151 32.1149C155.982 34.6897 153.476 35.977 150.633 35.977C148.777 35.977 147.462 35.2874 146.69 33.908C146.032 32.6973 145.63 30.6207 145.482 27.6782C145.351 23.0805 145.285 18.7969 145.285 14.8276C143.609 14.7663 142.582 14.6897 142.204 14.5977C142.122 14.4751 142.081 14.023 142.081 13.2414C142.081 12.4598 142.122 12.0307 142.204 11.954L145.334 11.6782C145.334 11.3563 145.383 9.81609 145.482 7.05747C146.304 6.27586 147.503 5.67816 149.081 5.26437C150.674 4.83525 152.087 4.62069 153.32 4.62069C153.09 6.56705 152.901 8.91954 152.753 11.6782C153.295 11.6935 154.93 11.7854 157.658 11.954C157.74 12.2146 157.781 12.7126 157.781 13.4483C157.781 14.1839 157.74 14.6284 157.658 14.7816C156.146 14.9655 154.462 15.0805 152.605 15.1264C152.539 16.9502 152.507 19.2567 152.507 22.046C152.507 24.8199 152.572 27.4406 152.704 29.908C152.753 30.8582 153.262 31.3333 154.232 31.3333C155.218 31.3333 156.187 31.0728 157.14 30.5517Z" fill="white"/>
<path d="M183.023 22.1839L182.875 29.908C182.875 29.9847 182.875 30.0613 182.875 30.1379C182.875 30.9808 183.302 31.4023 184.157 31.4023C184.814 31.4023 185.512 31.2031 186.252 30.8046C186.482 30.9885 186.695 31.249 186.892 31.5862C187.106 31.908 187.229 32.1609 187.262 32.3448C185.225 34.7663 183.105 35.977 180.903 35.977C178.718 35.977 177.19 34.9732 176.319 32.9655C174.807 33.9464 173.262 34.6897 171.685 35.1954C170.124 35.7165 168.777 35.977 167.643 35.977C166.526 35.977 165.482 35.8621 164.513 35.6322C163.56 35.4023 162.672 35.0345 161.851 34.5287C160.076 33.4559 159.189 31.6858 159.189 29.2184C159.189 27.9004 159.575 26.751 160.347 25.7701C161.136 24.7739 162.204 23.9923 163.551 23.4253C166.131 22.3372 169.212 21.7471 172.794 21.6552L175.653 21.5632C175.768 20.3218 175.826 19.341 175.826 18.6207C175.826 16.9962 175.489 15.7701 174.815 14.9425C174.158 14.1149 172.926 13.7011 171.118 13.7011C170.034 13.7011 169.187 14.0536 168.58 14.7586C167.988 15.4636 167.692 16.5057 167.692 17.8851C167.692 18.069 167.413 18.2912 166.854 18.5517C165.918 18.9655 164.981 19.1724 164.044 19.1724C163.124 19.1724 162.385 18.9272 161.826 18.4368C161.284 17.9464 161.013 17.2567 161.013 16.3678C161.013 15.4789 161.358 14.6437 162.048 13.8621C162.738 13.0805 163.658 12.4751 164.808 12.046C167.092 11.2031 169.697 10.7816 172.622 10.7816C175.678 10.7816 177.913 11.2337 179.326 12.1379C180.607 12.9349 181.519 14.0766 182.062 15.5632C182.702 17.295 183.023 19.5019 183.023 22.1839ZM175.653 30.5517C175.44 29.4329 175.333 28.4674 175.333 27.6552C175.333 26.8276 175.358 25.6782 175.407 24.2069L171.981 24.3448C170.223 24.3448 168.867 24.7433 167.914 25.5402C166.961 26.3372 166.484 27.3333 166.484 28.5287C166.484 29.7241 166.764 30.5824 167.322 31.1034C167.881 31.6245 169.007 31.8851 170.699 31.8851C172.408 31.8851 174.059 31.4406 175.653 30.5517Z" fill="white"/>
<path d="M190.124 5.83908C189.845 4.35249 188.801 3.50958 186.994 3.31034C186.879 2.55939 186.821 2.13793 186.821 2.04598C186.821 1.9387 186.83 1.82375 186.846 1.70115C189.952 0.56705 193.098 0 196.286 0C196.434 0 196.59 0 196.754 0C197.099 0.413793 197.329 1.37931 197.444 2.89655C197.56 4.39847 197.617 7.90805 197.617 13.4253C197.617 18.9272 197.527 26.1762 197.346 35.1724C196.261 35.4636 194.963 35.6092 193.452 35.6092C191.94 35.6092 190.765 35.4483 189.927 35.1264C190.223 33.0728 190.371 29.1571 190.371 23.3793C190.371 17.6015 190.289 11.7548 190.124 5.83908Z" fill="white"/>
</g>
</svg>
