<svg width="32" height="32" viewBox="0 0 32 32" fill="none" xmlns="http://www.w3.org/2000/svg">
<g id="telephone-receiver_icon-icons.com_56033 1" clip-path="url(#clip0_2_161)">
<g id="Vector">
<path d="M32 15.783C32 24.6195 24.8366 31.783 16 31.783C7.16344 31.783 0 24.6195 0 15.783C0 6.94642 7.16344 -0.217028 16 -0.217028C24.8366 -0.217028 32 6.94642 32 15.783Z" fill="#0075DC"/>
<path d="M23.0026 19.9172L22.8984 19.7889C22.0738 18.7588 21.3846 18.2227 20.7932 18.1523C20.2819 18.0834 19.7875 18.4326 19.2617 18.792L18.7 19.1389C18.6327 19.1721 18.5661 19.199 18.5036 19.2173C18.1751 19.3091 17.3456 19.3629 16.876 18.9385C16.3295 18.4444 15.4816 17.5402 14.8221 16.7499C14.1922 15.932 13.4998 14.9121 13.1383 14.2699C12.833 13.726 13.0886 12.965 13.2593 12.6831C13.293 12.6277 13.3371 12.5731 13.386 12.5192L13.8812 12.0671C13.8884 12.06 13.8916 12.0513 13.8981 12.0449C13.9029 12.0402 13.9109 12.0418 13.9165 12.0378C14.3637 11.6648 14.8261 11.2808 14.8894 10.7875C14.9639 10.2079 14.5993 9.42399 13.773 8.39462L13.6721 8.26635C13.1608 7.61864 12.3874 6.63915 11.2767 6.80068C10.84 6.86482 10.4497 7.0121 10.0474 7.26153C10.0434 7.2639 10.041 7.26865 10.0378 7.27103C10.0346 7.2734 10.0306 7.2734 10.0273 7.27578L9.46717 7.68594C9.46156 7.68911 9.45836 7.69624 9.45275 7.70099C9.44874 7.70495 9.44233 7.70574 9.43752 7.7097C9.37261 7.76354 9.3077 7.81897 9.24359 7.87598C8.6754 8.37641 7.44527 9.82941 8.28432 12.5169C8.82606 14.2525 9.9432 16.278 11.5227 18.3858L11.5075 18.3985L12.3786 19.4706L12.3858 19.4651C14.0984 21.4668 15.8414 23.014 17.4386 23.9508C18.5044 24.5763 19.4356 24.783 20.2018 24.783C21.2099 24.783 21.932 24.4251 22.2942 24.1923L22.5218 24.0418C22.5474 24.0244 22.5659 23.9999 22.5843 23.9777L23.0804 23.6087C23.086 23.6039 23.0892 23.5976 23.0948 23.5929C23.0972 23.5905 23.1012 23.5913 23.1044 23.5889C23.457 23.2706 23.7014 22.9372 23.8713 22.5421C24.3113 21.5294 23.5235 20.5594 23.0026 19.9172ZM23.2823 22.2935C23.1501 22.6007 22.9569 22.862 22.6781 23.1154L21.94 23.6641C21.2716 24.0933 19.8428 24.6238 17.7672 23.406C16.17 22.4693 14.4117 20.8856 12.6815 18.8261L12.2135 18.2417C10.5843 16.107 9.43832 14.0625 8.89739 12.33C8.19457 10.0772 9.0801 8.86893 9.67313 8.34711C9.73323 8.29327 9.79334 8.24339 9.85264 8.1935L9.85505 8.19112L10.3928 7.79759C10.7197 7.5933 11.0227 7.47928 11.3713 7.42702C12.1102 7.31699 12.7125 8.08059 13.1564 8.64324C13.1597 8.64748 13.1631 8.65171 13.1664 8.65592L13.2706 8.78658C14.1938 9.93709 14.2827 10.4842 14.2539 10.7075C14.2218 10.9554 13.8404 11.2729 13.5038 11.5524L13.4565 11.592C13.4549 11.5936 13.4541 11.596 13.4525 11.5975C13.4501 11.5991 13.4477 11.5999 13.4453 11.6015L12.9332 12.0695C12.93 12.0726 12.9284 12.0766 12.9252 12.0806C12.922 12.0845 12.9155 12.0861 12.9123 12.0901C12.833 12.178 12.7649 12.2658 12.7096 12.3569C12.4219 12.8328 12.1502 13.8162 12.579 14.5772C12.9532 15.2423 13.6656 16.2931 14.3204 17.1419C15.0048 17.9622 15.8775 18.8934 16.4433 19.4041C16.8672 19.7866 17.457 19.9148 17.9675 19.9148C18.2408 19.9148 18.4916 19.8776 18.6815 19.8246C18.7817 19.7961 18.8851 19.7549 18.9917 19.7034C18.9981 19.7003 19.0013 19.6947 19.0077 19.6908C19.0109 19.6892 19.0157 19.69 19.0189 19.6876L19.6136 19.3202C19.6328 19.3075 19.6456 19.2909 19.6616 19.2751L19.6688 19.283C20.0351 19.032 20.4526 18.7374 20.7139 18.7802C20.9455 18.8079 21.4712 19.028 22.396 20.1817L22.5026 20.3139C22.9529 20.8689 23.5699 21.6294 23.2823 22.2935Z" fill="white"/>
<path d="M23.2823 22.2935C23.1501 22.6007 22.9569 22.862 22.6781 23.1154L21.94 23.6641C21.2716 24.0933 19.8428 24.6238 17.7672 23.406C16.17 22.4693 14.4117 20.8856 12.6815 18.8261L12.2135 18.2417C10.5843 16.107 9.43832 14.0625 8.89739 12.33C8.19457 10.0772 9.0801 8.86893 9.67313 8.34711C9.73323 8.29327 9.79334 8.24339 9.85264 8.1935L9.85505 8.19112L10.3928 7.79759C10.7197 7.5933 11.0227 7.47928 11.3713 7.42702C12.1102 7.31699 12.7125 8.08059 13.1564 8.64324L13.1664 8.65592L13.2706 8.78658C14.1938 9.93709 14.2827 10.4842 14.2539 10.7075C14.2218 10.9554 13.8404 11.2729 13.5038 11.5524L13.4565 11.592C13.4549 11.5936 13.4541 11.596 13.4525 11.5975C13.4501 11.5991 13.4477 11.5999 13.4453 11.6015L12.9332 12.0695C12.93 12.0726 12.9284 12.0766 12.9252 12.0806C12.922 12.0845 12.9155 12.0861 12.9123 12.0901C12.833 12.178 12.7649 12.2658 12.7096 12.3569C12.4219 12.8328 12.1502 13.8162 12.579 14.5772C12.9532 15.2423 13.6656 16.2931 14.3204 17.1419C15.0048 17.9622 15.8775 18.8934 16.4433 19.4041C16.8672 19.7866 17.457 19.9148 17.9675 19.9148C18.2408 19.9148 18.4916 19.8776 18.6815 19.8246C18.7817 19.7961 18.8851 19.7549 18.9917 19.7034C18.9981 19.7003 19.0013 19.6947 19.0077 19.6908C19.0109 19.6892 19.0157 19.69 19.0189 19.6876L19.6136 19.3202C19.6328 19.3075 19.6456 19.2909 19.6616 19.2751L19.6688 19.283C20.0351 19.032 20.4526 18.7374 20.7139 18.7802C20.9455 18.8079 21.4712 19.028 22.396 20.1817L22.5026 20.3139C22.9529 20.8689 23.5699 21.6294 23.2823 22.2935Z" fill="white"/>
</g>
</g>
<defs>
<clipPath id="clip0_2_161">
<rect width="32" height="32" fill="white"/>
</clipPath>
</defs>
</svg>
